<?xml version="1.0" encoding="UTF-8" standalone="no"?>
<svg
   version="1.1"
   id="Layer_1"
   x="0px"
   y="0px"
   viewBox="0 0 150 150"
   xml:space="preserve"
   sodipodi:docname="logo.svg"
   width="150"
   height="150"
   inkscape:version="1.2.2 (b0a8486541, 2022-12-01)"
   xmlns:inkscape="http://www.inkscape.org/namespaces/inkscape"
   xmlns:sodipodi="http://sodipodi.sourceforge.net/DTD/sodipodi-0.dtd"
   xmlns="http://www.w3.org/2000/svg"
   xmlns:svg="http://www.w3.org/2000/svg"><defs
     id="defs50" /><sodipodi:namedview
     id="namedview48"
     pagecolor="#ffffff"
     bordercolor="#000000"
     borderopacity="0.25"
     inkscape:showpageshadow="2"
     inkscape:pageopacity="0.0"
     inkscape:pagecheckerboard="0"
     inkscape:deskcolor="#d1d1d1"
     showgrid="false"
     inkscape:zoom="5.1214604"
     inkscape:cx="45.982978"
     inkscape:cy="74.197587"
     inkscape:window-width="1920"
     inkscape:window-height="1011"
     inkscape:window-x="0"
     inkscape:window-y="32"
     inkscape:window-maximized="1"
     inkscape:current-layer="Layer_1" /><rect
     style="fill:#006bb3;fill-opacity:1"
     id="rect327"
     width="149.54765"
     height="149.73811"
     x="0.35291976"
     y="0.064801566"
     ry="20.809452" /><g
     id="g45"
     transform="translate(13.348992,18.087306)"
     style="fill:#ffffff"><path
       d="M 4.85,12.96 53.22,0 53.16,3.12 49.89,4 14.98,64.46 18.27,76.72 52.9,16.74 52.78,22.94 19.36,80.81 22.64,93.07 52.4,41.52 52.28,47.72 24.21,96.35 c -0.14,0.23 -0.32,0.42 -0.54,0.54 l 0.78,2.93 c 0.25,0.94 0.87,1.69 1.65,2.14 0.78,0.45 1.74,0.61 2.68,0.36 l 2.99,-0.8 c 0.01,-0.23 0.07,-0.47 0.2,-0.69 L 51.92,66.3 51.8,72.5 35.65,100.48 47.9,97.2 l 3.53,-6.12 -0.16,8.32 -21.71,5.81 c -1.74,0.47 -3.51,0.18 -4.96,-0.66 -1.45,-0.84 -2.58,-2.23 -3.05,-3.97 L 0.22,20.97 C -0.25,19.23 0.04,17.46 0.88,16.01 1.72,14.56 3.11,13.43 4.85,12.96 Z M 64.69,4.65 h 51.66 c 1.8,0 3.43,0.74 4.62,1.92 1.18,1.18 1.92,2.82 1.92,4.62 v 82.43 c 0,1.8 -0.74,3.43 -1.92,4.62 -1.18,1.18 -2.82,1.92 -4.62,1.92 H 64.69 c -1.79,0 -3.43,-0.74 -4.61,-1.92 H 60.07 C 58.89,97.06 58.15,95.42 58.15,93.62 V 11.19 c 0,-1.8 0.74,-3.43 1.92,-4.62 l 0.09,-0.08 c 1.18,-1.14 2.78,-1.84 4.53,-1.84 z m 42.55,81.32 0.6,0.09 2.54,7.25 h 1.71 l 2.52,-7.25 0.59,-0.09 v -1 h -2.84 v 1 l 0.58,0.1 -0.37,1.15 h -2.7 l -0.37,-1.15 0.58,-0.1 v -1 h -2.84 z m 3.02,2.48 h 1.91 l -0.94,2.94 h -0.04 z M 65.65,19 l 0.6,-0.09 2.54,-7.25 h 1.71 l 2.52,7.25 0.59,0.09 v 1 h -2.84 v -1 l 0.58,-0.1 -0.37,-1.15 h -2.7 l -0.37,1.15 0.58,0.1 v 1 h -2.84 z m 3.03,-2.48 h 1.91 l -0.94,-2.94 h -0.04 z m 26.86,50.69 -3.03,-6.98 c 5.42,5.12 13.69,2.34 13.89,-5.65 0.14,-5.74 -5.34,-13.24 -16.1,-22.94 -10.69,9.7 -16.22,17.15 -15.64,22.94 0.71,7.02 7.77,10.22 13.21,5.65 l -2.15,6.98 z M 116.34,7.65 H 64.69 c -0.94,0 -1.8,0.37 -2.44,0.98 l -0.06,0.06 c -0.64,0.64 -1.04,1.53 -1.04,2.5 v 82.43 c 0,0.97 0.4,1.86 1.04,2.5 0.64,0.64 1.53,1.04 2.5,1.04 h 51.66 c 0.97,0 1.86,-0.4 2.5,-1.04 0.64,-0.64 1.04,-1.53 1.04,-2.5 V 11.19 c 0,-0.97 -0.4,-1.86 -1.04,-2.5 -0.65,-0.65 -1.53,-1.04 -2.51,-1.04 z M 17.18,12.76 6.21,31.76 9.5,44.01 29.44,9.47 Z m -12.06,14.9 7.98,-13.81 -7.47,2 C 4.69,16.1 3.94,16.72 3.49,17.5 3.04,18.29 2.88,19.25 3.13,20.19 Z M 33.53,8.38 10.59,48.11 13.88,60.37 45.79,5.09 Z"
       id="path43"
       style="fill:#ffffff" /></g></svg>
